PathFileType	4	(X/Y/Z)	C:/Users/beibeiliu/ov580/test_trc/User3\sequence.15_training_dense_left.trc
DataRate	CameraRate	NumFrames	NumMarkers	Units	OrigDataRate	OrigDataStartFrame	OrigNumFrames
120	120	17	19	mm	120	147	234
Frame#	Time	ThumbCMC			ThumbMCP			ThumbIP			ThumbTip			IndexMCP			IndexPIP			IndexTip			MiddleMCP			MiddlePIP			MiddleTip			RingMCP			RingPIP			RingTip			PinkyMCP			PinkyPIP			PinkyTip			BackHand1			BackHand2			BackHand3	
		X0	Y0	Z0	X1	Y1	Z1	X2	Y2	Z2	X3	Y3	Z3	X4	Y4	Z4	X5	Y5	Z5	X6	Y6	Z6	X7	Y7	Z7	X8	Y8	Z8	X9	Y9	Z9	X10	Y10	Z10	X11	Y11	Z11	X12	Y12	Z12	X13	Y13	Z13	X14	Y14	Z14	X15	Y15	Z15	X16	Y16	Z16	X17	Y17	Z17	X18	Y18	Z18	
146	1.21667	-206.087	-11.0043	-1.49551	-177.296	3.38569	-9.42601	-150.04	15.4078	-16.7467	-125.336	6.94119	-15.4363	-146.874	-37.038	-41.3504	-122.246	-21.3687	-35.6347	-112.288	-4.97032	-4.92938	-148.667	-62.2855	-42.8649	-119.733	-61.555	-49.7672	-88.0535	-53.6457	-54.08	-149.157	-78.6076	-27.6353	-123.411	-83.9385	-36.6223	-101.515	-84.7622	-39.9175	-152.005	-89.3262	-0.33344	-132.883	-93.9329	-6.11128	-109.161	-99.4967	-10.8642	-198.626	-73.2374	-3.31576	-221.599	-72.6493	12.7441	-216.84	-47.8378	-13.3234	
147	1.225	-208.343	-9.67594	-3.89202	-183.264	9.84223	-12.0848	-154.971	14.9575	-18.5469	-129.114	18.3876	-20.3697	-150.838	-29.808	-44.6457	-124.421	-14.1061	-36.5835	-117.122	2.58863	-11.5847	-144.689	-59.665	-41.2056	-120.355	-53.7625	-51.1338	-90.1205	-43.9125	-55.8587	-147.337	-74.6687	-24.1545	-122.403	-74.6881	-36.976	-94.6341	-75.7574	-41.7612	-148.314	-85.653	0.364886	-125.131	-86.8421	-7.12851	-101.976	-90.1415	-9.93538	-192.781	-74.7724	-2.9048	-221.259	-70.281	16.0195	-216.644	-44.2184	-13.1825	
148	1.23333	-215.819	-8.92571	-4.93062	-188.046	9.81429	-15.6363	-162.64	20.0353	-22.5329	-136.781	25.9238	-23.9335	-154.551	-28.7723	-45.1492	-128.145	-10.6139	-38.6336	-121.969	8.13656	-11.725	-148.048	-52.8565	-44.5397	-120.918	-45.8884	-54.5645	-89.7895	-36.6328	-58.6985	-144.468	-70.6965	-25.311	-122.248	-69.0754	-37.8715	-95.1153	-63.5821	-46.9049	-146.222	-77.9714	-1.32893	-122.952	-79.3779	-9.25105	-98.1814	-80.0028	-11.5805	-190.98	-72.6877	-3.16665	-220.701	-70.3703	15.6946	-216.426	-47.9345	-13.5259	
149	1.24167	-218.041	-11.497	-5.31167	-196.915	13.4983	-16.9342	-167.221	25.291	-28.3533	-141.432	27.177	-29.5973	-154.628	-24.1142	-48.5877	-133.295	-6.95018	-42.7625	-132.189	16.3718	-15.5737	-151.55	-49.3683	-46.0897	-124.852	-43.5351	-57.4158	-92.8396	-26.6842	-67.2878	-146.934	-64.0536	-30.059	-121.55	-64.4567	-40.7356	-98.1111	-60.8057	-46.8673	-146.412	-71.5715	-2.40042	-124.179	-74.2006	-7.72161	-98.1934	-70.8283	-13.0723	-190.719	-72.7673	-2.70302	-215.026	-72.7743	18.5749	-219.445	-47.6633	-14.687	
150	1.25	-218.802	-11.8671	-8.47211	-196.984	12.4337	-21.119	-175.896	26.6712	-30.4557	-150.009	32.2147	-34.2859	-162.287	-24.4855	-51.9712	-139.524	1.60985	-48.767	-136.007	16.2704	-21.3948	-150.958	-49.561	-50.1109	-124.816	-39.774	-62.931	-102.461	-25.4174	-72.2531	-148.656	-61.6076	-36.6256	-124.523	-61.495	-46.2578	-100.553	-55.5395	-54.7454	-144.737	-71.3521	-6.40273	-122.611	-68.3126	-14.4263	-98.5996	-67.6941	-20.7961	-195.094	-69.3354	-3.36545	-214.687	-70.1925	16.4506	-221.506	-48.7884	-15.2454	
151	1.25833	-223.625	-8.52264	-12.3562	-200.7	9.01572	-22.9577	-177.005	26.5515	-37.7667	-153.143	27.7838	-39.1901	-168.924	-24.3283	-57.0419	-145.602	-0.0981047	-55.0042	-141.677	17.7861	-27.4462	-158.245	-49.616	-53.2375	-133.61	-40.2811	-70.5489	-107.187	-22.9882	-81.9478	-150.569	-62.9368	-39.9839	-129.217	-60.2303	-52.8416	-107.723	-55.8951	-61.7275	-146.669	-67.1591	-14.3116	-125.267	-66.945	-19.5201	-105.092	-65.4547	-25.532	-193.415	-72.3914	-7.41118	-214.286	-71.8967	15.5943	-218.998	-50.8848	-16.2677	
152	1.26667	-226.494	-9.5783	-12.0439	-208.274	11.113	-23.0572	-185.718	26.4005	-39.4428	-161.43	30.1073	-45.5047	-174.618	-21.4966	-62.3143	-153.596	2.85771	-61.0622	-146.338	19.0398	-37.614	-163.846	-49.9198	-59.8509	-143.301	-39.4513	-78.0969	-117.108	-25.2467	-89.059	-158.788	-61.9524	-42.6292	-137.076	-61.4662	-56.7504	-110.381	-55.3128	-70.5426	-148.691	-68.5442	-15.625	-130.138	-63.8563	-27.938	-108.957	-61.5908	-35.1908	-198.484	-69.7248	-6.85124	-219.187	-69.9059	12.8711	-225.23	-50.2593	-14.7797	
153	1.275	-229.152	-11.8569	-10.8619	-212.697	11.8286	-27.6966	-189.25	21.7397	-42.9055	-168.273	28.5253	-49.6638	-180.779	-27.1441	-62.7	-157.798	1.94774	-65.5403	-149.723	18.0893	-40.3488	-170.365	-49.8027	-67.1163	-149.46	-42.7245	-82.2242	-126.888	-25.3778	-98.2698	-162.16	-65.199	-42.9328	-140.885	-63.3138	-63.5631	-122.281	-56.7011	-76.5173	-154.177	-65.9354	-21.7654	-130.846	-64.9837	-31.8026	-113.184	-63.0394	-40.5906	-197.662	-71.3762	-10.1489	-219.76	-71.2741	15.982	-229.835	-51.5093	-13.8846	
154	1.28333	-232.152	-13.4995	-11.5713	-216.119	10.9932	-31.8449	-193.206	23.1577	-50.3651	-171.294	22.9768	-55.168	-185.448	-25.3481	-69.8927	-163.034	-4.02926	-69.4652	-155.299	15.4058	-49.3182	-175.085	-54.4255	-66.3941	-158.144	-44.498	-87.8246	-133.513	-28.5717	-106.078	-169.825	-63.5067	-48.3595	-145.224	-64.7528	-67.556	-126.712	-59.5714	-83.1427	-156.339	-68.111	-22.4274	-137.452	-65.2416	-38.7595	-118.656	-63.619	-44.8447	-203.471	-70.5868	-10.4503	-220.182	-70.6815	17.2797	-230.972	-50.5347	-16.2777	
155	1.29167	-237.114	-14.1449	-10.1384	-216.782	4.62391	-32.2122	-199.071	20.0622	-51.2157	-175.103	23.7442	-63.492	-195.211	-27.7338	-70.7973	-172.042	-2.27142	-75.7483	-162.206	16.718	-53.0368	-182.462	-56.1231	-69.7179	-162.833	-45.0433	-93.8961	-141.762	-33.5044	-109.633	-173.644	-65.628	-52.5729	-153.402	-68.2435	-69.5367	-134.14	-62.0555	-89.1133	-158.46	-68.3051	-30.0639	-139.662	-67.0739	-39.9029	-122.435	-66.7253	-51.1543	-206.754	-72.015	-12.1658	-223.633	-71.8613	15.7863	-234.495	-55.2916	-12.5986	
156	1.3	-237.966	-15.5976	-14.1849	-221.537	2.29085	-33.901	-203.245	17.9738	-56.2169	-182.38	24.6152	-66.5022	-194.619	-32.8009	-73.4382	-175.777	-8.66106	-78.7711	-167.537	12.2842	-57.4224	-184.236	-60.5883	-73.494	-169.231	-51.8821	-94.9922	-146.796	-37.9861	-115.289	-172.724	-71.3824	-54.7924	-159.315	-68.5417	-76.5717	-138.581	-65.5582	-94.0874	-164.331	-68.2322	-30.3435	-146.251	-67.905	-43.5937	-125.095	-70.6215	-54.1804	-205.675	-73.174	-12.9026	-221.859	-71.2137	13.4173	-233.201	-56.7211	-15.778	
157	1.30833	-242.764	-16.0775	-12.4535	-225.73	1.81454	-32.5672	-207.129	15.2147	-58.0767	-184.972	16.6853	-69.2717	-204.962	-34.6257	-76.0919	-184.298	-12.093	-82.7212	-174.006	11.4314	-60.8846	-191.388	-64.6297	-71.437	-177.535	-55.6018	-99.2564	-153.766	-42.4497	-121.386	-176.526	-73.8696	-54.8104	-164.353	-72.6853	-77.6607	-144.123	-70.2891	-98.3733	-164.057	-72.8648	-33.7209	-149.398	-71.6605	-47.2432	-132.05	-70.2167	-62.685	-205.247	-76.8933	-12.6112	-219.73	-74.0711	15.4862	-239.613	-55.7974	-13.9826	
158	1.31667	-240.551	-19.5217	-13.5932	-227.255	0.146979	-38.2002	-210.66	9.28642	-57.3949	-191.375	14.307	-72.443	-207.134	-39.6977	-77.8392	-187.87	-15.4282	-85.6565	-175.846	5.58722	-66.9109	-197.182	-67.1873	-78.0015	-185.642	-61.8425	-98.7213	-164.57	-50.267	-121.952	-181.065	-78.3597	-60.0968	-170.808	-77.635	-80.6167	-152.864	-77.1454	-98.4453	-166.084	-76.9738	-36.2807	-150.971	-76.511	-47.3149	-133.078	-75.8868	-65.7466	-209.599	-76.3738	-9.92924	-220.153	-75.7428	17.1703	-240.876	-58.9214	-13.6798	
159	1.325	-243.464	-19.5092	-11.3635	-229.948	-2.32179	-40.7655	-213.378	5.84369	-64.6414	-194.532	9.55795	-78.6087	-216.494	-42.4977	-76.9902	-192.486	-17.8251	-89.4485	-178.953	-0.784168	-73.4219	-202.052	-72.7032	-73.9147	-188.031	-67.9909	-101.258	-171.773	-56.0064	-126.845	-185.864	-81.1092	-57.9812	-177.274	-81.7944	-82.8957	-160.09	-80.2824	-103.811	-172.189	-79.457	-38.717	-157.454	-79.0796	-53.7765	-143.413	-82.3362	-69.1289	-212.103	-80.5857	-9.54159	-220.994	-77.5789	16.1697	-240.019	-61.9128	-12.1887	
160	1.33333	-243.661	-22.0313	-9.58448	-233.374	-6.2655	-39.1375	-218.876	3.77429	-65.9525	-199.124	4.96932	-85.0147	-217.967	-48.942	-78.8759	-200.416	-26.0811	-92.8129	-182.714	-1.56629	-78.1697	-208.547	-75.5121	-77.4716	-196.708	-71.6184	-102.917	-178.48	-63.1273	-131.105	-193.452	-83.0629	-57.9017	-178.873	-88.3511	-84.8613	-167.422	-86.5141	-104.135	-174.364	-82.4258	-37.7235	-157.636	-85.3894	-58.1067	-146.46	-86.6442	-76.8391	-216.137	-81.2728	-14.2511	-223.871	-74.2158	16.1633	-245.743	-61.518	-9.33945	
161	1.34167	-245.679	-23.6306	-10.1294	-237.193	-6.04044	-40.8006	-222.9	-1.23818	-67.8028	-206.608	0.469812	-87.3178	-227.984	-50.9432	-77.6909	-210.082	-31.5211	-94.8519	-187.687	-8.38185	-82.5043	-214.755	-79.7301	-72.585	-203.669	-79.0194	-101.374	-190.064	-72.4543	-129.909	-197.957	-89.2594	-60.2712	-190.913	-90.5905	-84.1252	-175.017	-92.7441	-108.54	-180.711	-85.6438	-38.2736	-168.896	-88.3014	-58.0767	-152.264	-92.5583	-74.9158	-217.487	-83.2315	-12.4899	-221.044	-78.0408	17.0539	-244.336	-64.8395	-8.0932	
162	1.35	-247.742	-25.721	-10.706	-239.76	-10.6986	-42.0518	-229.741	-2.57631	-67.5195	-214.519	-5.05074	-86.5281	-235.932	-55.2626	-77.9304	-212.039	-35.9748	-95.7886	-193.543	-12.9459	-87.0048	-223.392	-85.0505	-75.2397	-216.433	-82.7171	-104.847	-204.882	-78.1889	-131.632	-208.118	-92.1083	-63.1225	-199.062	-97.116	-83.6437	-188.028	-99.5875	-107.221	-187.529	-92.3143	-42.1153	-174.05	-96.025	-59.3692	-161.156	-99.2929	-81.4529	-222.8	-84.9669	-9.12526	-226.068	-78.5951	17.3789	-252.666	-62.1071	-5.13464	
